<svg width="156" height="23" viewBox="0 0 156 23" fill="none" xmlns="http://www.w3.org/2000/svg">
<path d="M5.01562 9.03125V22H0.140625V5.09375H4.71875L5.01562 9.03125ZM10.0625 4.96875L9.98438 9.51562C9.77604 9.48438 9.50521 9.45833 9.17188 9.4375C8.83854 9.40625 8.55208 9.39062 8.3125 9.39062C7.6875 9.39062 7.14583 9.46875 6.6875 9.625C6.23958 9.77083 5.86458 9.98958 5.5625 10.2812C5.27083 10.5729 5.05208 10.9375 4.90625 11.375C4.76042 11.8021 4.6875 12.2969 4.6875 12.8594L3.76562 12.4062C3.76562 11.2917 3.875 10.2708 4.09375 9.34375C4.3125 8.41667 4.63021 7.61458 5.04688 6.9375C5.46354 6.25 5.97396 5.71875 6.57812 5.34375C7.18229 4.96875 7.86979 4.78125 8.64062 4.78125C8.89062 4.78125 9.14583 4.79688 9.40625 4.82812C9.66667 4.85938 9.88542 4.90625 10.0625 4.96875ZM19.7188 22.3125C18.375 22.3125 17.1719 22.099 16.1094 21.6719C15.0469 21.2448 14.1458 20.6562 13.4062 19.9062C12.6771 19.1458 12.1198 18.2708 11.7344 17.2812C11.349 16.2917 11.1562 15.2344 11.1562 14.1094V13.5156C11.1562 12.2552 11.3333 11.0938 11.6875 10.0312C12.0417 8.96875 12.5573 8.04688 13.2344 7.26562C13.9219 6.47396 14.7656 5.86458 15.7656 5.4375C16.7656 5 17.9062 4.78125 19.1875 4.78125C20.3854 4.78125 21.4531 4.97917 22.3906 5.375C23.3281 5.76042 24.1198 6.31771 24.7656 7.04688C25.4115 7.76562 25.901 8.63542 26.2344 9.65625C26.5781 10.6667 26.75 11.8021 26.75 13.0625V15.0625H13.125V11.9219H21.9688V11.5469C21.9688 10.9531 21.8594 10.4323 21.6406 9.98438C21.4323 9.53646 21.1198 9.19271 20.7031 8.95312C20.2969 8.70312 19.7812 8.57812 19.1562 8.57812C18.5625 8.57812 18.0677 8.70312 17.6719 8.95312C17.276 9.20312 16.9583 9.55729 16.7188 10.0156C16.4896 10.4635 16.3229 10.9896 16.2188 11.5938C16.1146 12.1875 16.0625 12.8281 16.0625 13.5156V14.1094C16.0625 14.7656 16.151 15.3646 16.3281 15.9062C16.5052 16.4479 16.7656 16.9115 17.1094 17.2969C17.4531 17.6823 17.8698 17.9844 18.3594 18.2031C18.849 18.4219 19.4062 18.5312 20.0312 18.5312C20.8021 18.5312 21.5365 18.3854 22.2344 18.0938C22.9323 17.7917 23.5365 17.3229 24.0469 16.6875L26.3281 19.2969C25.9844 19.7969 25.5 20.2812 24.875 20.75C24.2604 21.2083 23.5208 21.5833 22.6562 21.875C21.7917 22.1667 20.8125 22.3125 19.7188 22.3125ZM38.0781 17.9688V10.7188C38.0781 10.2083 38 9.77083 37.8438 9.40625C37.6875 9.04167 37.4427 8.75521 37.1094 8.54688C36.776 8.33854 36.3438 8.23438 35.8125 8.23438C35.3646 8.23438 34.974 8.3125 34.6406 8.46875C34.3177 8.625 34.0677 8.84896 33.8906 9.14062C33.724 9.43229 33.6406 9.79167 33.6406 10.2188H28.7656C28.7656 9.45833 28.9375 8.75 29.2812 8.09375C29.625 7.4375 30.1146 6.85938 30.75 6.35938C31.3958 5.85938 32.1667 5.47396 33.0625 5.20312C33.9583 4.92188 34.9635 4.78125 36.0781 4.78125C37.401 4.78125 38.5781 5.00521 39.6094 5.45312C40.651 5.89062 41.474 6.55208 42.0781 7.4375C42.6823 8.3125 42.9844 9.41667 42.9844 10.75V17.8281C42.9844 18.849 43.0417 19.651 43.1562 20.2344C43.2812 20.8073 43.4583 21.3073 43.6875 21.7344V22H38.7656C38.5365 21.5104 38.3646 20.9062 38.25 20.1875C38.1354 19.4583 38.0781 18.7188 38.0781 17.9688ZM38.6875 11.6875L38.7188 14.375H36.2969C35.7552 14.375 35.2865 14.4427 34.8906 14.5781C34.5052 14.7135 34.1927 14.901 33.9531 15.1406C33.7135 15.3698 33.5365 15.6406 33.4219 15.9531C33.3177 16.2552 33.2656 16.5885 33.2656 16.9531C33.2656 17.2969 33.349 17.6094 33.5156 17.8906C33.6823 18.1615 33.9115 18.375 34.2031 18.5312C34.4948 18.6875 34.8333 18.7656 35.2188 18.7656C35.8542 18.7656 36.3958 18.6406 36.8438 18.3906C37.3021 18.1406 37.6562 17.8385 37.9062 17.4844C38.1562 17.1198 38.2812 16.7812 38.2812 16.4688L39.4531 18.5C39.2656 18.9167 39.0365 19.349 38.7656 19.7969C38.4948 20.2344 38.151 20.6458 37.7344 21.0312C37.3177 21.4062 36.8125 21.7135 36.2188 21.9531C35.6354 22.1927 34.9323 22.3125 34.1094 22.3125C33.0469 22.3125 32.0833 22.099 31.2188 21.6719C30.3542 21.2344 29.6615 20.6354 29.1406 19.875C28.6302 19.1146 28.375 18.2396 28.375 17.25C28.375 16.3646 28.5365 15.5781 28.8594 14.8906C29.1823 14.2031 29.6667 13.6198 30.3125 13.1406C30.9688 12.6615 31.7917 12.3021 32.7812 12.0625C33.7708 11.8125 34.9271 11.6875 36.25 11.6875H38.6875ZM53.25 18.5156C53.7708 18.5156 54.224 18.4167 54.6094 18.2188C54.9948 18.0208 55.2917 17.7448 55.5 17.3906C55.7188 17.026 55.8281 16.5885 55.8281 16.0781H60.4219C60.4219 17.3073 60.1042 18.3906 59.4688 19.3281C58.8438 20.2656 58 21 56.9375 21.5312C55.875 22.0521 54.6771 22.3125 53.3438 22.3125C52.0312 22.3125 50.8854 22.099 49.9062 21.6719C48.9271 21.2344 48.1094 20.625 47.4531 19.8438C46.7969 19.0625 46.3021 18.1562 45.9688 17.125C45.6458 16.0833 45.4844 14.9583 45.4844 13.75V13.3438C45.4844 12.1458 45.6458 11.026 45.9688 9.98438C46.3021 8.94271 46.7969 8.03125 47.4531 7.25C48.1094 6.46875 48.9219 5.86458 49.8906 5.4375C50.8698 5 52.0156 4.78125 53.3281 4.78125C54.7135 4.78125 55.9375 5.04688 57 5.57812C58.0729 6.10938 58.9115 6.875 59.5156 7.875C60.1198 8.86458 60.4219 10.0573 60.4219 11.4531H55.8281C55.8281 10.9115 55.7292 10.4271 55.5312 10C55.3438 9.5625 55.0521 9.21875 54.6562 8.96875C54.2708 8.70833 53.7917 8.57812 53.2188 8.57812C52.625 8.57812 52.1354 8.70833 51.75 8.96875C51.375 9.21875 51.0885 9.56771 50.8906 10.0156C50.6927 10.4635 50.5573 10.974 50.4844 11.5469C50.4115 12.1094 50.375 12.7083 50.375 13.3438V13.75C50.375 14.3958 50.4115 15.0104 50.4844 15.5938C50.5573 16.1667 50.6927 16.6719 50.8906 17.1094C51.099 17.5469 51.3906 17.8906 51.7656 18.1406C52.1406 18.3906 52.6354 18.5156 53.25 18.5156ZM71.4375 5.09375V8.51562H61.4062V5.09375H71.4375ZM63.7031 0.90625H68.5938V16.7031C68.5938 17.1719 68.651 17.5312 68.7656 17.7812C68.8802 18.0312 69.0677 18.2083 69.3281 18.3125C69.5885 18.4062 69.9219 18.4531 70.3281 18.4531C70.6198 18.4531 70.8698 18.4427 71.0781 18.4219C71.2865 18.401 71.4792 18.375 71.6562 18.3438V21.875C71.2396 22.0104 70.7969 22.1146 70.3281 22.1875C69.8594 22.2708 69.349 22.3125 68.7969 22.3125C67.7448 22.3125 66.8333 22.1406 66.0625 21.7969C65.3021 21.4531 64.7188 20.9115 64.3125 20.1719C63.9062 19.4219 63.7031 18.4479 63.7031 17.25V0.90625Z" fill="#61DAFB"/>
<path d="M74.0469 19.6875C74.0469 18.9792 74.2969 18.3854 74.7969 17.9062C75.3073 17.4271 75.9688 17.1875 76.7812 17.1875C77.6042 17.1875 78.2604 17.4271 78.75 17.9062C79.25 18.3854 79.5 18.9792 79.5 19.6875C79.5 20.3854 79.25 20.974 78.75 21.4531C78.2604 21.9323 77.6042 22.1719 76.7812 22.1719C75.9688 22.1719 75.3073 21.9323 74.7969 21.4531C74.2969 20.974 74.0469 20.3854 74.0469 19.6875ZM88.0625 8.70312V22H83.1719V5.09375H87.7656L88.0625 8.70312ZM87.4219 12.9531L86.2031 12.9844C86.2031 11.7135 86.3594 10.5729 86.6719 9.5625C86.9844 8.55208 87.4271 7.69271 88 6.98438C88.5833 6.26562 89.276 5.71875 90.0781 5.34375C90.8906 4.96875 91.7865 4.78125 92.7656 4.78125C93.5573 4.78125 94.2812 4.89583 94.9375 5.125C95.5938 5.35417 96.1562 5.72396 96.625 6.23438C97.1042 6.73438 97.4688 7.40104 97.7188 8.23438C97.9688 9.05729 98.0938 10.0729 98.0938 11.2812V22H93.1875V11.2656C93.1875 10.5573 93.0885 10.0104 92.8906 9.625C92.6927 9.23958 92.401 8.96875 92.0156 8.8125C91.6406 8.65625 91.1823 8.57812 90.6406 8.57812C90.0677 8.57812 89.5781 8.69271 89.1719 8.92188C88.7656 9.14062 88.4323 9.44792 88.1719 9.84375C87.9115 10.2396 87.7188 10.7031 87.5938 11.2344C87.4792 11.7656 87.4219 12.3385 87.4219 12.9531ZM109.25 22.3125C107.906 22.3125 106.703 22.099 105.641 21.6719C104.578 21.2448 103.677 20.6562 102.938 19.9062C102.208 19.1458 101.651 18.2708 101.266 17.2812C100.88 16.2917 100.688 15.2344 100.688 14.1094V13.5156C100.688 12.2552 100.865 11.0938 101.219 10.0312C101.573 8.96875 102.089 8.04688 102.766 7.26562C103.453 6.47396 104.297 5.86458 105.297 5.4375C106.297 5 107.438 4.78125 108.719 4.78125C109.917 4.78125 110.984 4.97917 111.922 5.375C112.859 5.76042 113.651 6.31771 114.297 7.04688C114.943 7.76562 115.432 8.63542 115.766 9.65625C116.109 10.6667 116.281 11.8021 116.281 13.0625V15.0625H102.656V11.9219H111.5V11.5469C111.5 10.9531 111.391 10.4323 111.172 9.98438C110.964 9.53646 110.651 9.19271 110.234 8.95312C109.828 8.70312 109.312 8.57812 108.688 8.57812C108.094 8.57812 107.599 8.70312 107.203 8.95312C106.807 9.20312 106.49 9.55729 106.25 10.0156C106.021 10.4635 105.854 10.9896 105.75 11.5938C105.646 12.1875 105.594 12.8281 105.594 13.5156V14.1094C105.594 14.7656 105.682 15.3646 105.859 15.9062C106.036 16.4479 106.297 16.9115 106.641 17.2969C106.984 17.6823 107.401 17.9844 107.891 18.2031C108.38 18.4219 108.938 18.5312 109.562 18.5312C110.333 18.5312 111.068 18.3854 111.766 18.0938C112.464 17.7917 113.068 17.3229 113.578 16.6875L115.859 19.2969C115.516 19.7969 115.031 20.2812 114.406 20.75C113.792 21.2083 113.052 21.5833 112.188 21.875C111.323 22.1667 110.344 22.3125 109.25 22.3125ZM123.641 17.2969L126.953 5.09375H130.031L128.984 10.5312L125.672 22H123.156L123.641 17.2969ZM122.125 5.09375L124.344 17.25L124.578 22H121.578L117.422 5.09375H122.125ZM133.031 17.0156L135.234 5.09375H139.938L135.812 22H132.812L133.031 17.0156ZM130.406 5.09375L133.75 17.2344L134.234 22H131.688L128.406 10.5469L127.406 5.09375H130.406ZM151.031 17.2969C151.031 16.9844 150.932 16.7083 150.734 16.4688C150.547 16.2292 150.203 16.0104 149.703 15.8125C149.214 15.6146 148.521 15.4167 147.625 15.2188C146.781 15.0417 145.995 14.8125 145.266 14.5312C144.536 14.2396 143.901 13.8906 143.359 13.4844C142.818 13.0677 142.396 12.5781 142.094 12.0156C141.792 11.4427 141.641 10.7917 141.641 10.0625C141.641 9.35417 141.792 8.68229 142.094 8.04688C142.406 7.41146 142.854 6.84896 143.438 6.35938C144.031 5.86979 144.75 5.48438 145.594 5.20312C146.448 4.92188 147.417 4.78125 148.5 4.78125C149.99 4.78125 151.276 5.01562 152.359 5.48438C153.443 5.94271 154.276 6.58854 154.859 7.42188C155.443 8.24479 155.734 9.1875 155.734 10.25H150.859C150.859 9.8125 150.776 9.43229 150.609 9.10938C150.443 8.78646 150.188 8.53646 149.844 8.35938C149.5 8.17188 149.047 8.07812 148.484 8.07812C148.047 8.07812 147.661 8.15625 147.328 8.3125C147.005 8.45833 146.75 8.66146 146.562 8.92188C146.385 9.18229 146.297 9.48438 146.297 9.82812C146.297 10.0677 146.349 10.2865 146.453 10.4844C146.568 10.6719 146.74 10.849 146.969 11.0156C147.208 11.1719 147.516 11.3125 147.891 11.4375C148.276 11.5625 148.745 11.6823 149.297 11.7969C150.474 12.0156 151.547 12.3229 152.516 12.7188C153.495 13.1146 154.276 13.6615 154.859 14.3594C155.453 15.0573 155.75 15.9792 155.75 17.125C155.75 17.875 155.578 18.5625 155.234 19.1875C154.901 19.8125 154.417 20.3594 153.781 20.8281C153.146 21.2969 152.385 21.6615 151.5 21.9219C150.615 22.1823 149.615 22.3125 148.5 22.3125C146.906 22.3125 145.557 22.026 144.453 21.4531C143.349 20.8802 142.516 20.1615 141.953 19.2969C141.401 18.4219 141.125 17.526 141.125 16.6094H145.703C145.724 17.1719 145.865 17.6302 146.125 17.9844C146.396 18.3385 146.745 18.599 147.172 18.7656C147.599 18.9219 148.078 19 148.609 19C149.141 19 149.583 18.9271 149.938 18.7812C150.292 18.6354 150.562 18.4375 150.75 18.1875C150.938 17.9271 151.031 17.6302 151.031 17.2969Z" fill="black"/>
<path d="M74.0469 19.6875C74.0469 18.9792 74.2969 18.3854 74.7969 17.9062C75.3073 17.4271 75.9688 17.1875 76.7812 17.1875C77.6042 17.1875 78.2604 17.4271 78.75 17.9062C79.25 18.3854 79.5 18.9792 79.5 19.6875C79.5 20.3854 79.25 20.974 78.75 21.4531C78.2604 21.9323 77.6042 22.1719 76.7812 22.1719C75.9688 22.1719 75.3073 21.9323 74.7969 21.4531C74.2969 20.974 74.0469 20.3854 74.0469 19.6875ZM88.0625 8.70312V22H83.1719V5.09375H87.7656L88.0625 8.70312ZM87.4219 12.9531L86.2031 12.9844C86.2031 11.7135 86.3594 10.5729 86.6719 9.5625C86.9844 8.55208 87.4271 7.69271 88 6.98438C88.5833 6.26562 89.276 5.71875 90.0781 5.34375C90.8906 4.96875 91.7865 4.78125 92.7656 4.78125C93.5573 4.78125 94.2812 4.89583 94.9375 5.125C95.5938 5.35417 96.1562 5.72396 96.625 6.23438C97.1042 6.73438 97.4688 7.40104 97.7188 8.23438C97.9688 9.05729 98.0938 10.0729 98.0938 11.2812V22H93.1875V11.2656C93.1875 10.5573 93.0885 10.0104 92.8906 9.625C92.6927 9.23958 92.401 8.96875 92.0156 8.8125C91.6406 8.65625 91.1823 8.57812 90.6406 8.57812C90.0677 8.57812 89.5781 8.69271 89.1719 8.92188C88.7656 9.14062 88.4323 9.44792 88.1719 9.84375C87.9115 10.2396 87.7188 10.7031 87.5938 11.2344C87.4792 11.7656 87.4219 12.3385 87.4219 12.9531ZM109.25 22.3125C107.906 22.3125 106.703 22.099 105.641 21.6719C104.578 21.2448 103.677 20.6562 102.938 19.9062C102.208 19.1458 101.651 18.2708 101.266 17.2812C100.88 16.2917 100.688 15.2344 100.688 14.1094V13.5156C100.688 12.2552 100.865 11.0938 101.219 10.0312C101.573 8.96875 102.089 8.04688 102.766 7.26562C103.453 6.47396 104.297 5.86458 105.297 5.4375C106.297 5 107.438 4.78125 108.719 4.78125C109.917 4.78125 110.984 4.97917 111.922 5.375C112.859 5.76042 113.651 6.31771 114.297 7.04688C114.943 7.76562 115.432 8.63542 115.766 9.65625C116.109 10.6667 116.281 11.8021 116.281 13.0625V15.0625H102.656V11.9219H111.5V11.5469C111.5 10.9531 111.391 10.4323 111.172 9.98438C110.964 9.53646 110.651 9.19271 110.234 8.95312C109.828 8.70312 109.312 8.57812 108.688 8.57812C108.094 8.57812 107.599 8.70312 107.203 8.95312C106.807 9.20312 106.49 9.55729 106.25 10.0156C106.021 10.4635 105.854 10.9896 105.75 11.5938C105.646 12.1875 105.594 12.8281 105.594 13.5156V14.1094C105.594 14.7656 105.682 15.3646 105.859 15.9062C106.036 16.4479 106.297 16.9115 106.641 17.2969C106.984 17.6823 107.401 17.9844 107.891 18.2031C108.38 18.4219 108.938 18.5312 109.562 18.5312C110.333 18.5312 111.068 18.3854 111.766 18.0938C112.464 17.7917 113.068 17.3229 113.578 16.6875L115.859 19.2969C115.516 19.7969 115.031 20.2812 114.406 20.75C113.792 21.2083 113.052 21.5833 112.188 21.875C111.323 22.1667 110.344 22.3125 109.25 22.3125ZM123.641 17.2969L126.953 5.09375H130.031L128.984 10.5312L125.672 22H123.156L123.641 17.2969ZM122.125 5.09375L124.344 17.25L124.578 22H121.578L117.422 5.09375H122.125ZM133.031 17.0156L135.234 5.09375H139.938L135.812 22H132.812L133.031 17.0156ZM130.406 5.09375L133.75 17.2344L134.234 22H131.688L128.406 10.5469L127.406 5.09375H130.406ZM151.031 17.2969C151.031 16.9844 150.932 16.7083 150.734 16.4688C150.547 16.2292 150.203 16.0104 149.703 15.8125C149.214 15.6146 148.521 15.4167 147.625 15.2188C146.781 15.0417 145.995 14.8125 145.266 14.5312C144.536 14.2396 143.901 13.8906 143.359 13.4844C142.818 13.0677 142.396 12.5781 142.094 12.0156C141.792 11.4427 141.641 10.7917 141.641 10.0625C141.641 9.35417 141.792 8.68229 142.094 8.04688C142.406 7.41146 142.854 6.84896 143.438 6.35938C144.031 5.86979 144.75 5.48438 145.594 5.20312C146.448 4.92188 147.417 4.78125 148.5 4.78125C149.99 4.78125 151.276 5.01562 152.359 5.48438C153.443 5.94271 154.276 6.58854 154.859 7.42188C155.443 8.24479 155.734 9.1875 155.734 10.25H150.859C150.859 9.8125 150.776 9.43229 150.609 9.10938C150.443 8.78646 150.188 8.53646 149.844 8.35938C149.5 8.17188 149.047 8.07812 148.484 8.07812C148.047 8.07812 147.661 8.15625 147.328 8.3125C147.005 8.45833 146.75 8.66146 146.562 8.92188C146.385 9.18229 146.297 9.48438 146.297 9.82812C146.297 10.0677 146.349 10.2865 146.453 10.4844C146.568 10.6719 146.74 10.849 146.969 11.0156C147.208 11.1719 147.516 11.3125 147.891 11.4375C148.276 11.5625 148.745 11.6823 149.297 11.7969C150.474 12.0156 151.547 12.3229 152.516 12.7188C153.495 13.1146 154.276 13.6615 154.859 14.3594C155.453 15.0573 155.75 15.9792 155.75 17.125C155.75 17.875 155.578 18.5625 155.234 19.1875C154.901 19.8125 154.417 20.3594 153.781 20.8281C153.146 21.2969 152.385 21.6615 151.5 21.9219C150.615 22.1823 149.615 22.3125 148.5 22.3125C146.906 22.3125 145.557 22.026 144.453 21.4531C143.349 20.8802 142.516 20.1615 141.953 19.2969C141.401 18.4219 141.125 17.526 141.125 16.6094H145.703C145.724 17.1719 145.865 17.6302 146.125 17.9844C146.396 18.3385 146.745 18.599 147.172 18.7656C147.599 18.9219 148.078 19 148.609 19C149.141 19 149.583 18.9271 149.938 18.7812C150.292 18.6354 150.562 18.4375 150.75 18.1875C150.938 17.9271 151.031 17.6302 151.031 17.2969Z" fill="#E1E1E6"/>
</svg>
