<svg width="989" height="870" viewBox="0 0 989 870" fill="none" xmlns="http://www.w3.org/2000/svg">
<path opacity="0.6" fill-rule="evenodd" clip-rule="evenodd" d="M781.17 271.343C906.845 309.336 988.816 370.601 988.816 435.249C988.816 499.697 907.248 560.963 782.378 598.956C811.581 725.068 798.893 825.52 742.299 857.744C729.006 865.303 713.7 868.883 696.782 868.883C641.396 868.883 568.891 830.294 495.58 763.06C422.27 830.691 349.765 869.679 294.379 869.679C277.461 869.679 262.155 866.098 249.063 858.539C192.268 826.315 179.378 725.664 208.38 599.154C82.7046 561.162 0.733643 499.896 0.733643 435.249C0.733643 370.8 82.3018 309.733 207.574 271.542C178.371 145.43 191.059 44.9776 247.654 12.7534C260.946 5.19467 276.253 1.6142 293.171 1.6142V1.41529C348.556 1.41529 421.061 40.0048 494.372 107.238C567.683 39.607 640.188 0.619629 695.573 0.619629V0.818714C712.211 0.847384 727.448 4.42938 740.486 11.9578C797.282 44.182 810.172 144.833 781.17 271.343ZM695.372 44.9779C653.484 45.0835 591.947 78.0941 526.395 138.269C554.793 167.509 582.989 200.927 610.179 237.726C655.494 242.5 698.594 249.86 738.069 259.408C742.5 239.317 746.126 219.625 748.341 200.927C757.606 124.941 745.723 65.8637 718.332 50.3483C712.089 46.9668 704.637 45.1766 695.372 45.1766V44.9779ZM462.349 138.468C396.692 78.5943 334.861 45.7733 293.171 45.7733V45.9722C283.906 45.9722 276.051 47.5635 270.009 51.144C242.82 66.8583 231.139 125.936 240.604 201.921C243.021 220.421 246.445 239.715 251.077 259.607C290.552 249.86 333.653 242.5 379.17 237.726C405.956 200.927 434.153 167.708 462.349 138.468ZM699.4 381.144C709.873 354.688 719.138 328.232 726.589 302.572C700.206 296.207 672.614 291.035 644.014 286.858C653.883 301.976 663.752 317.491 673.016 333.404C682.482 349.317 691.143 365.231 699.4 381.144ZM585.809 590.402C602.525 566.731 618.638 541.27 634.347 514.417C649.452 488.359 663.349 461.704 676.037 435.05C663.349 408.395 649.452 381.939 634.146 355.882C618.436 329.227 602.123 303.965 585.406 280.294C555.599 277.907 525.187 276.515 494.775 276.515C464.162 276.515 433.75 277.907 403.741 280.493C387.024 304.164 370.912 329.625 355.203 356.478C340.097 382.536 325.999 409.191 313.512 435.845C326.201 462.5 340.097 488.956 355.404 515.013C371.113 541.668 387.427 566.93 404.144 590.601C433.951 592.988 464.363 594.381 494.775 594.381C525.388 594.381 555.8 592.988 585.809 590.402ZM727.194 567.726C719.54 541.867 710.276 515.212 699.4 488.558C691.143 504.471 682.482 520.583 673.218 536.496C663.953 552.608 654.084 568.323 644.216 583.639C673.016 579.462 700.81 574.091 727.194 567.726ZM439.188 637.147C457.717 660.42 476.447 681.704 495.178 700.8C513.707 681.704 532.437 660.42 550.563 637.147C532.236 638.142 513.505 638.54 494.573 638.54C475.843 638.54 457.314 637.943 439.188 637.147ZM262.759 567.925C289.143 574.29 316.735 579.462 345.334 583.639C335.465 568.522 325.798 553.006 316.332 537.093C306.866 521.18 298.206 505.267 289.948 489.353C279.475 515.809 270.211 542.265 262.759 567.925ZM550.161 233.35C531.632 210.077 512.901 188.793 494.171 169.697C475.642 188.793 456.911 210.077 438.785 233.35C457.113 232.355 475.843 231.958 494.775 231.958C513.505 231.958 532.034 232.554 550.161 233.35ZM316.13 334.001C325.395 317.889 335.264 302.175 345.133 286.858C316.332 291.035 288.538 296.406 262.155 302.572C269.808 328.431 279.072 355.086 289.948 381.741C298.206 365.827 306.866 349.914 316.13 334.001ZM45.4451 435.249C45.4451 466.478 91.5664 505.863 162.863 535.9C180.385 543.259 199.317 550.022 219.256 556.189C230.534 517.4 245.438 477.021 263.967 435.646C245.237 394.073 230.131 353.495 218.652 314.507C199.115 320.674 180.184 327.238 162.863 334.598C91.5664 364.435 45.4451 404.019 45.4451 435.249ZM241.209 669.57C231.944 745.556 243.827 804.634 271.218 820.149C277.26 823.53 284.913 825.321 293.976 825.52C335.868 825.52 397.497 792.5 463.155 732.229C434.757 702.988 406.56 669.57 379.371 632.771C334.055 627.997 290.955 620.637 251.48 611.089C247.049 631.18 243.424 650.872 241.209 669.57ZM719.54 819.353C746.73 803.639 758.411 744.561 748.945 668.576C746.73 650.077 743.105 630.782 738.472 610.692C698.997 620.438 655.897 627.798 610.38 632.572C583.594 669.371 555.397 702.59 527.201 731.831C592.858 791.704 654.689 824.525 696.379 824.525C705.644 824.525 713.498 822.934 719.54 819.353ZM770.697 555.99C790.233 549.824 809.165 543.259 826.485 535.9C897.782 506.062 943.903 466.478 944.105 435.249C944.105 404.019 897.983 364.634 826.687 334.598C808.963 327.238 790.031 320.475 770.093 314.308C758.814 353.097 743.91 393.476 725.381 434.851C744.112 476.424 759.217 517.003 770.697 555.99ZM586.615 435.25C586.615 485.455 545.406 526.154 494.574 526.154C443.741 526.154 402.532 485.455 402.532 435.25C402.532 385.045 443.741 344.346 494.574 344.346C545.406 344.346 586.615 385.045 586.615 435.25Z" fill="#1F2729"/>
</svg>
